<svg xmlns="http://www.w3.org/2000/svg" viewBox="-5 -10 105 105">
  <path d="m76.133 2.5c-1.3359 10.16-0.10156 25.207-6.4414 37.184l-11.168 3.8047 5.8047 5.543c-9.2266 15.082-19.527 19.441-31.66 30.758-1.8789 4.7852-3.6328 9.6289-5.2578 14.523 4.9805 0.58594 8.7266-1.3398 12.867-3.4727 9.625-4.9531 19.133-3.125 29.191-0.42969-14.246-3.8164-21.477-0.097656-27.789 3.1523-5.082 2.6172-9.6289 4.9531-16.496 3.4766-0.085938-0.011718-0.17188-0.03125-0.26172-0.058593-0.80469-0.26172-1.2461-1.1289-0.98438-1.9336 4.2188-12.98 9.3516-25.641 15.352-37.883 4.2031-8.5742 8.8281-16.945 13.859-25.066-11.055 12.527-20.418 24.859-28.398 46.578 0-23.469-3.5586-39 9.4883-52.73l6.8555 4.1758 0.78125-11.77c9.9297-9.2227 24.785-11.93 34.25-15.848z" fill="#1a1a1a" fill-rule="evenodd"/>
</svg>
